<svg width="28" height="28" viewBox="0 0 28 28" fill="none" xmlns="http://www.w3.org/2000/svg">
<mask id="mask0_409_9580" style="mask-type:alpha" maskUnits="userSpaceOnUse" x="2" y="2" width="24" height="24">
<rect x="2" y="2" width="24" height="24" fill="#D9D9D9"/>
</mask>
<g mask="url(#mask0_409_9580)">
<path fill-rule="evenodd" clip-rule="evenodd" d="M9.2 2C9.86274 2 10.4 2.53726 10.4 3.2L10.4 5.13044H17.6V3.2C17.6 2.53726 18.1373 2 18.8 2C19.4627 2 20 2.53726 20 3.2V5.13044H20.0696C22.2787 5.13044 24.0696 6.92131 24.0696 9.13044V22C24.0696 24.2091 22.2787 26 20.0696 26H7.2C4.99086 26 3.2 24.2091 3.2 22V9.13044C3.2 6.9213 4.99086 5.13044 7.2 5.13044H8V3.2C8 2.53726 8.53726 2 9.2 2ZM8.16057 7.40005C8.05848 7.57654 8.00005 7.78146 8.00005 8.00001C8.00005 8.66275 8.53731 9.20001 9.20005 9.20001C9.86279 9.20001 10.4 8.66275 10.4 8.00001C10.4 7.78142 10.3416 7.57648 10.2395 7.39996C10.032 7.75867 9.64418 8 9.2 8C8.75585 8 8.36806 7.7587 8.16057 7.40005ZM17.7606 7.40005C17.9681 7.7587 18.3559 8 18.8 8C19.2442 8 19.632 7.75867 19.8395 7.39997C19.9416 7.57649 20 7.78142 20 8.00001C20 8.66275 19.4628 9.20001 18.8 9.20001C18.1373 9.20001 17.6 8.66275 17.6 8.00001C17.6 7.78146 17.6585 7.57654 17.7606 7.40005ZM5.2 22V12.2174H22.0696V22C22.0696 23.1046 21.1741 24 20.0696 24H7.2C6.09543 24 5.2 23.1046 5.2 22Z" fill="black" fill-opacity="0.8"/>
</g>
</svg>
