<svg width="24" height="24" viewBox="0 0 24 24" fill="none" xmlns="http://www.w3.org/2000/svg">
<mask id="mask0_409_9578" style="mask-type:alpha" maskUnits="userSpaceOnUse" x="0" y="0" width="24" height="24">
<rect width="24" height="24" fill="#D9D9D9"/>
</mask>
<g mask="url(#mask0_409_9578)">
<path fill-rule="evenodd" clip-rule="evenodd" d="M7.2 0C7.86274 0 8.4 0.537258 8.4 1.2L8.4 3.13044H15.6V1.2C15.6 0.537258 16.1373 0 16.8 0C17.4627 0 18 0.537258 18 1.2V3.13044H18.0696C20.2787 3.13044 22.0696 4.92131 22.0696 7.13044V20C22.0696 22.2091 20.2787 24 18.0696 24H5.2C2.99086 24 1.2 22.2091 1.2 20V7.13044C1.2 4.9213 2.99086 3.13044 5.2 3.13044H6V1.2C6 0.537258 6.53726 0 7.2 0ZM6.16057 5.40005C6.05848 5.57654 6.00005 5.78146 6.00005 6.00001C6.00005 6.66275 6.53731 7.20001 7.20005 7.20001C7.86279 7.20001 8.40005 6.66275 8.40005 6.00001C8.40005 5.78142 8.3416 5.57648 8.23948 5.39996C8.032 5.75867 7.64418 6 7.2 6C6.75585 6 6.36806 5.7587 6.16057 5.40005ZM15.7606 5.40005C15.9681 5.7587 16.3559 6 16.8 6C17.2442 6 17.632 5.75867 17.8395 5.39997C17.9416 5.57649 18 5.78142 18 6.00001C18 6.66275 17.4628 7.20001 16.8 7.20001C16.1373 7.20001 15.6 6.66275 15.6 6.00001C15.6 5.78146 15.6585 5.57654 15.7606 5.40005ZM3.2 20V10.2174H20.0696V20C20.0696 21.1046 19.1741 22 18.0696 22H5.2C4.09543 22 3.2 21.1046 3.2 20Z" fill="black"/>
</g>
</svg>
