<svg width="24" height="24" viewBox="0 0 24 24" fill="none" xmlns="http://www.w3.org/2000/svg">
<mask id="mask0_325_768" style="mask-type:alpha" maskUnits="userSpaceOnUse" x="2" y="2" width="20" height="20">
<rect x="2" y="2" width="20" height="20" fill="#D9D9D9"/>
</mask>
<g mask="url(#mask0_325_768)">
<path fill-rule="evenodd" clip-rule="evenodd" d="M4.10526 4.10526H9.36842V9.36842H4.10526L4.10526 4.10526ZM2 4.10526C2 2.94256 2.94256 2 4.10526 2H9.36842C10.5311 2 11.4737 2.94256 11.4737 4.10526V9.36842C11.4737 10.5311 10.5311 11.4737 9.36842 11.4737H4.10526C2.94256 11.4737 2 10.5311 2 9.36842V4.10526ZM4.10526 14.6316H9.36842V19.8947H4.10526L4.10526 14.6316ZM2 14.6316C2 13.4689 2.94256 12.5263 4.10526 12.5263H9.36842C10.5311 12.5263 11.4737 13.4689 11.4737 14.6316V19.8947C11.4737 21.0574 10.5311 22 9.36842 22H4.10526C2.94256 22 2 21.0574 2 19.8947V14.6316ZM19.8947 4.10526H14.6316V9.36842H19.8947V4.10526ZM14.6316 2C13.4689 2 12.5263 2.94256 12.5263 4.10526V9.36842C12.5263 10.5311 13.4689 11.4737 14.6316 11.4737H19.8947C21.0574 11.4737 22 10.5311 22 9.36842V4.10526C22 2.94256 21.0574 2 19.8947 2H14.6316ZM20 17.265C20 18.7755 18.7755 20 17.265 20C15.7545 20 14.53 18.7755 14.53 17.265C14.53 15.7545 15.7545 14.53 17.265 14.53C18.7755 14.53 20 15.7545 20 17.265ZM22 17.265C22 19.8801 19.8801 22 17.265 22C14.65 22 12.53 19.8801 12.53 17.265C12.53 14.65 14.65 12.53 17.265 12.53C19.8801 12.53 22 14.65 22 17.265Z" fill="black"/>
</g>
</svg>
