<svg width="current" height="current" viewBox="0 0 current current" fill="none" xmlns="http://www.w3.org/2000/svg">
<rect width="100%" height="100%" rx="100%" fill="black" fill-opacity="0.1"/>
<path fill-rule="evenodd" clip-rule="evenodd" d="M16.8873 7.65658C17.0375 7.50638 17.0375 7.26285 16.8873 7.11265C16.7371 6.96245 16.4936 6.96245 16.3434 7.11265L12 11.4561L7.65658 7.11265C7.50638 6.96245 7.26285 6.96245 7.11265 7.11265C6.96245 7.26285 6.96245 7.50638 7.11265 7.65658L11.4561 12L7.11265 16.3434C6.96245 16.4936 6.96245 16.7371 7.11265 16.8873C7.26285 17.0375 7.50638 17.0375 7.65658 16.8873L12 12.5439L16.3434 16.8873C16.4936 17.0375 16.7371 17.0375 16.8873 16.8873C17.0375 16.7371 17.0375 16.4936 16.8873 16.3434L12.5439 12L16.8873 7.65658Z" fill="black" fill-opacity="0.8"/>
</svg>
