<svg width="24" height="24" viewBox="0 0 24 24" fill="none" xmlns="http://www.w3.org/2000/svg">
<mask id="mask0_328_12997" style="mask-type:alpha" maskUnits="userSpaceOnUse" x="2" y="2" width="20" height="20">
<rect x="2" y="2" width="20" height="20" fill="#D9D9D9"/>
</mask>
<g mask="url(#mask0_328_12997)">
<path fill-rule="evenodd" clip-rule="evenodd" d="M4.691 2.30095C4.33263 1.92776 3.71931 1.89751 3.32111 2.23338C2.92292 2.56925 2.89064 3.14406 3.24901 3.51725L10.811 11.3918C11.143 11.7376 11.143 12.2624 10.811 12.6081L3.24901 20.4828C2.89064 20.8559 2.92292 21.4308 3.32111 21.7666C3.71931 22.1025 4.33263 22.0722 4.691 21.6991L12.253 13.8244C13.249 12.7873 13.249 11.2127 12.253 10.1756L4.691 2.30095ZM12.691 2.30095C12.3326 1.92776 11.7193 1.89751 11.3211 2.23338C10.9229 2.56925 10.8906 3.14406 11.249 3.51725L18.811 11.3918C19.143 11.7376 19.143 12.2624 18.811 12.6081L11.249 20.4828C10.8906 20.8559 10.9229 21.4308 11.3211 21.7666C11.7193 22.1025 12.3326 22.0722 12.691 21.6991L20.253 13.8244C21.249 12.7873 21.249 11.2127 20.253 10.1756L12.691 2.30095Z" fill="black"/>
</g>
</svg>
