<svg width="current" height="current" viewBox="0 0 current current" fill="none" xmlns="http://www.w3.org/2000/svg">
<g mask="url(#mask0_240_12283)">
<path fill-rule="evenodd" clip-rule="evenodd" d="M15 7C15 8.65685 13.6569 10 12 10C10.3431 10 9 8.65685 9 7C9 5.34315 10.3431 4 12 4C13.6569 4 15 5.34315 15 7ZM17 7C17 9.76142 14.7614 12 12 12C9.23858 12 7 9.76142 7 7C7 4.23858 9.23858 2 12 2C14.7614 2 17 4.23858 17 7ZM3.90476 21C3.90476 17.134 6.88953 15 10.5714 15H13.4286C17.1105 15 20.0952 17.134 20.0952 21C20.0952 21.5523 20.5216 22 21.0476 22C21.5736 22 22 21.5523 22 21C22 16.0294 18.1624 13 13.4286 13H10.5714C5.83756 13 2 16.0294 2 21C2 21.5523 2.4264 22 2.95238 22C3.47837 22 3.90476 21.5523 3.90476 21Z" fill="current"/>
</g>
</svg>
