<svg width="24" height="24" viewBox="0 0 24 24" fill="none" xmlns="http://www.w3.org/2000/svg">
<mask id="mask0_310_785" style="mask-type:alpha" maskUnits="userSpaceOnUse" x="2" y="2" width="20" height="20">
<rect x="2" y="2" width="20" height="20" fill="#D9D9D9"/>
</mask>
<g mask="url(#mask0_310_785)">
<path fill-rule="evenodd" clip-rule="evenodd" d="M5.03314 16.3261L5.90041 14.8922L4.39771 14.1504C3.88545 13.8975 3.53846 13.3725 3.53846 12.7692V11.2308C3.53846 10.6514 3.85812 10.1445 4.33801 9.88072L5.63339 9.16871L4.97372 7.84591C4.68571 7.26838 4.78513 6.54988 5.26355 6.07146L6.35141 4.98361C6.81889 4.51613 7.51553 4.41029 8.08668 4.67493L9.23863 5.2087L9.98128 4.17896C10.2633 3.78794 10.7179 3.53846 11.2308 3.53846H12.7692C13.3048 3.53846 13.7775 3.81089 14.0553 4.23192L14.8427 5.42549L16.0906 4.72736C16.6771 4.39923 17.4321 4.48711 17.9286 4.98361L19.0164 6.07146C19.5129 6.56796 19.6008 7.3229 19.2727 7.90944L18.5745 9.15732L19.7681 9.94474C20.1891 10.2225 20.4615 10.6952 20.4615 11.2308V12.7692C20.4615 13.3306 20.1618 13.8236 19.7062 14.094L18.3126 14.9213L19.2112 16.27C19.609 16.8671 19.5424 17.6825 19.0164 18.2085L17.9286 19.2964C17.4117 19.8132 16.6151 19.8867 16.0207 19.511L14.8415 18.7657L13.9847 19.8665C13.7006 20.2314 13.2622 20.4615 12.7692 20.4615H11.2308C10.763 20.4615 10.3452 20.2547 10.0607 19.922L9.25614 18.9815L8.1651 19.5659C7.5818 19.8784 6.84094 19.7859 6.35141 19.2964L5.26355 18.2085C4.75416 17.6991 4.67522 16.9179 5.03314 16.3261ZM3.71672 15.5299C3.55911 15.4521 3.40912 15.3612 3.26817 15.2586C2.49958 14.6993 2 13.7926 2 12.7692V11.2308C2 10.0679 2.6451 9.05569 3.59696 8.5325C3.02258 7.38074 3.2155 5.94381 4.1757 4.98361L5.26355 3.89575C6.20193 2.95737 7.59561 2.7518 8.73347 3.27904C9.29222 2.5043 10.2026 2 11.2308 2H12.7692C13.8434 2 14.7891 2.55048 15.3395 3.38473C16.5111 2.72928 18.0203 2.89961 19.0164 3.89575L20.1043 4.98361C21.1004 5.97974 21.2707 7.48896 20.6153 8.66057C21.4495 9.21094 22 10.1566 22 11.2308V12.7692C22 13.7809 21.5117 14.6786 20.7579 15.2394C20.6724 15.303 20.5835 15.3623 20.4915 15.417C20.5507 15.5058 20.6047 15.597 20.6537 15.6902C21.2636 16.8513 21.0804 18.3202 20.1043 19.2964L19.0164 20.3842C17.9799 21.4207 16.3879 21.5631 15.1987 20.8115C14.6357 21.5347 13.7568 22 12.7692 22H11.2308C10.2945 22 9.45589 21.5818 8.89155 20.922C7.72712 21.5458 6.24587 21.3665 5.26355 20.3842L4.1757 19.2964C3.28375 18.4044 3.05389 17.1011 3.48611 15.9971C3.54898 15.8365 3.62585 15.6802 3.71672 15.5299ZM15.0769 12C15.0769 13.6993 13.6993 15.0769 12 15.0769C10.3007 15.0769 8.92308 13.6993 8.92308 12C8.92308 10.3007 10.3007 8.92308 12 8.92308C13.6993 8.92308 15.0769 10.3007 15.0769 12ZM16.6154 12C16.6154 14.549 14.549 16.6154 12 16.6154C9.45099 16.6154 7.38462 14.549 7.38462 12C7.38462 9.45099 9.45099 7.38462 12 7.38462C14.549 7.38462 16.6154 9.45099 16.6154 12Z" fill="black" fill-opacity="0.8"/>
</g>
</svg>
