<svg width="20" height="20" viewBox="0 0 20 20" fill="none" xmlns="http://www.w3.org/2000/svg">
<path fill-rule="evenodd" clip-rule="evenodd" d="M14.7759 8.31147C14.7759 11.8817 11.8817 14.7759 8.31147 14.7759C4.74124 14.7759 1.84699 11.8817 1.84699 8.31147C1.84699 4.74124 4.74124 1.84699 8.31147 1.84699C11.8817 1.84699 14.7759 4.74124 14.7759 8.31147ZM13.4994 14.8054C12.0775 15.9428 10.2739 16.6229 8.31147 16.6229C3.72117 16.6229 0 12.9018 0 8.31147C0 3.72117 3.72117 0 8.31147 0C12.9018 0 16.6229 3.72117 16.6229 8.31147C16.6229 10.2739 15.9428 12.0775 14.8054 13.4994L19.7295 18.4235C20.0902 18.7842 20.0902 19.3689 19.7295 19.7296C19.3689 20.0902 18.7842 20.0902 18.4235 19.7296L13.4994 14.8054Z" fill="black"/>
</svg>
